<svg role="img" viewBox="0 0 24 24" xmlns="http://www.w3.org/2000/svg">
  <path fill="currentColor" d="M12 0C5.37 0 0 5.37 0 12c0 5.303 3.438 9.8 8.205 11.385.6.111.82-.261.82-.577v-2.234c-3.338.724-4.033-1.609-4.033-1.609-.546-1.387-1.333-1.757-1.333-1.757-1.089-.745.084-.729.084-.729 1.205.084 1.839 1.237 1.839 1.237 1.071 1.834 2.809 1.305 3.495.999.108-.776.417-1.305.759-1.605-2.665-.3-5.466-1.332-5.466-5.931 0-1.311.468-2.382 1.236-3.221-.123-.3-.536-1.524.117-3.176 0 0 1.008-.323 3.301 1.23a11.49 11.49 0 0 1 3.006-.404c1.018.005 2.044.138 3.006.404 2.291-1.553 3.297-1.23 3.297-1.23.654 1.652.241 2.876.12 3.176.771.839 1.235 1.91 1.235 3.221 0 4.61-2.805 5.628-5.476 5.922.429.372.813 1.103.813 2.222v3.293c0 .319.216.694.825.576C20.565 21.798 24 17.302 24 12c0-6.63-5.373-12-12-12z"/>
</svg>