<svg role="img" viewBox="0 0 26 32" width="18" height="18" xmlns="http://www.w3.org/2000/svg">
  <path fill="currentColor" d="M20 8C18.896 8 18 7.104 18 6L18 2L24 8L20 8ZM19 18L7 18C6.448 18 6 17.553 6 17C6 16.448 6.448 16 7 16L19 16C19.552 16 20 16.448 20 17C20 17.553 19.552 18 19 18ZM19 24L7 24C6.448 24 6 23.553 6 23C6 22.447 6.448 22 7 22L19 22C19.552 22 20 22.447 20 23C20 23.553 19.552 24 19 24ZM18 0.028C17.872 0.028 4 0 4 0C1.791 0 0 1.791 0 4L0 28C0 30.209 1.791 32 4 32L22 32C24.209 32 26 30.209 26 28L26 8L18 0.028Z"/>
</svg>